<svg xmlns="http://www.w3.org/2000/svg"
    xmlns:xlink="http://www.w3.org/1999/xlink" id="body_1" width="32" height="32">
    <g transform="matrix(0.0625 0 0 0.0625 0 0)">
        <path transform="matrix(1 0 0 1 0 0)" d="M-1 -1L581 -1L581 401L-1 401L-1 -1z" stroke="none" fill="none" />
        <path transform="matrix(-0.4468164 -0.8946257 0.8946257 -0.4468164 216.0928 358.8029)" d="M192.512 112.5919C 192.512 56.92373 204.3611 11.79572 218.9776 11.79572C 233.5942 11.79572 245.4433 56.92373 245.4433 112.5919C 245.4433 168.2602 233.5942 213.3882 218.9776 213.3882C 204.3611 213.3882 192.512 168.2602 192.512 112.5919" stroke="none" fill="#FFFFFF" fill-rule="nonzero" />
        <path transform="matrix(1 0 0 1 0 0)" d="M341.2083 85.84888L423.3062 392.2421L188.3258 455.2049L106.228 148.8116L341.2083 85.84888z" stroke="none" fill="#3455DB" fill-rule="nonzero" />
        <path transform="matrix(1 0 0 1 0 0)" d="M429.234 374.005L357.233 101.011C 355.226 93.40302 350.377 87.03102 343.578 83.07101C 336.779 79.10902 328.841 78.03601 321.237 80.04002L321.237 80.04002L316.35 81.32902L312.923 68.11002C 310.558 59.14502 306.207 53.15002 299.99 50.29401C 293.89 47.49101 286.731 48.04102 278.721 51.92501L278.721 51.92501L115.567 130.77C 103.117 136.807 96.64097 150.899 100.17 164.277L100.17 164.277L172.18 437.309L172.181 437.309L173.288 441.51C 175.295 449.117 180.145 455.489 186.942 459.449C 191.505 462.107 196.579 463.467 201.722 463.467C 204.243 463.467 206.781 463.14 209.284 462.481L209.284 462.481L408.263 410.002C 423.969 405.858 433.377 389.71 429.234 374.005zM284.604 64.07501C 286.696 63.06201 289.382 62.05001 291.772 62.05001C 292.694 62.05001 293.573 62.20001 294.355 62.56101C 297.312 63.91801 298.987 68.20101 299.874 71.56401L299.874 71.56401L303.296 84.77201L210.773 109.174L167.866 120.49L284.604 64.07501zM404.82 396.946L205.841 449.425C 201.72 450.514 197.423 449.929 193.739 447.784C 190.057 445.638 187.429 442.186 186.343 438.064L186.343 438.064L185.236 433.864L114.342 165.071C 113.255 160.949 113.837 156.651 115.984 152.967C 118.13 149.285 121.582 146.657 125.703 145.571L125.703 145.571L324.681 93.09201C 326.036 92.73401 327.411 92.55701 328.778 92.55701C 331.563 92.55701 334.311 93.29401 336.784 94.73401C 340.466 96.87901 343.094 100.332 344.18 104.453L344.18 104.453L416.18 377.447C 418.424 385.955 413.328 394.702 404.82 396.946z" stroke="none" fill="#000000" fill-rule="nonzero" />
        <path transform="matrix(1 0 0 1 0 0)" d="M255.533 308.57C 262.057 308.57 268.624 307.696 275.088 305.929C 276.401 305.571 277.692 305.172 278.967 304.748C 279.18 304.677 279.388 304.595 279.6 304.521C 280.694 304.146 281.776 303.751 282.842 303.329C 282.964 303.281 283.084 303.2271 283.205 303.179C 284.373 302.709 285.522 302.212 286.654 301.688C 286.679 301.6761 286.705 301.6641 286.729 301.652C 289.215 300.498 291.611 299.2141 293.917 297.811C 293.922 297.807 293.928 297.804 293.933 297.801C 309.402 288.39 320.69 273.649 325.989 256.749C 326.084 256.452 326.179 256.156 326.269 255.857C 326.455 255.237 326.63 254.614 326.8 253.988C 326.904 253.602 327.004 253.217 327.103 252.829C 327.255 252.228 327.407 251.629 327.544 251.024C 327.651 250.554 327.743 250.081 327.842 249.608C 328.032 248.687 328.205 247.762 328.3611 246.833C 328.451 246.295 328.5421 245.757 328.6201 245.216C 328.6941 244.7 328.7601 244.184 328.8231 243.666C 328.8921 243.094 328.955 242.52 329.011 241.946C 329.058 241.467 329.108 240.99 329.1461 240.509C 329.2161 239.614 329.2701 238.718 329.3071 237.819C 329.3241 237.423 329.3311 237.026 329.3411 236.629C 329.3621 235.835 329.3721 235.04 329.3661 234.243C 329.3631 233.832 329.3521 233.421 329.343 233.01C 329.325 232.285 329.2961 231.559 329.257 230.831C 329.2361 230.451 329.2191 230.071 329.192 229.69C 329.118 228.617 329.0261 227.541 328.903 226.464C 328.889 226.353 328.871 226.241 328.858 226.131C 328.739 225.135 328.597 224.139 328.437 223.142C 328.381 222.796 328.3181 222.451 328.257 222.105C 328.1161 221.3 327.9601 220.497 327.791 219.692C 327.722 219.359 327.653 219.025 327.579 218.692C 327.3311 217.587 327.064 216.481 326.763 215.377C 326.462 214.275 326.129 213.189 325.782 212.113C 325.678 211.793 325.5681 211.476 325.461 211.158C 325.194 210.368 324.914 209.586 324.623 208.81C 324.506 208.497 324.391 208.185 324.269 207.875C 323.865 206.843 323.446 205.82 322.998 204.815C 322.966 204.741 322.929 204.669 322.895 204.596C 322.475 203.661 322.036 202.742 321.581 201.831C 321.421 201.512 321.257 201.197 321.093 200.882C 320.736 200.192 320.367 199.51 319.989 198.834C 319.817 198.525 319.647 198.217 319.47 197.912C 318.939 196.993 318.394 196.084 317.826 195.194C 317.729 195.043 317.625 194.896 317.527 194.746C 317.039 193.992 316.538 193.25 316.023 192.517C 315.798 192.198 315.57 191.882 315.339 191.567C 314.92 190.99 314.492 190.42 314.056 189.855C 313.822 189.549 313.588 189.243 313.348 188.941C 312.718 188.153 312.078 187.375 311.419 186.615C 311.234 186.402 311.041 186.197 310.854 185.986C 310.331 185.395 309.8 184.812 309.259 184.24C 308.968 183.934 308.674 183.634 308.379 183.333C 307.912 182.855 307.438 182.386 306.958 181.923C 306.663 181.638 306.371 181.351 306.071 181.07C 305.346 180.392 304.611 179.725 303.86 179.078C 303.321 178.44 302.678 177.907 301.956 177.51C 301.116 176.834 300.263 176.178 299.395 175.539C 299.365 175.518 299.334 175.495 299.305 175.473C 298.453 174.848 297.589 174.243 296.712 173.655C 296.669 173.626 296.626 173.597 296.583 173.568C 295.707 172.983 294.819 172.418 293.919 171.871C 293.883 171.849 293.847 171.827 293.811 171.806C 292.8951 171.251 291.967 170.715 291.028 170.201C 291.024 170.199 291.0201 170.197 291.0161 170.194C 279.475 163.875 266.2551 160.618 252.6691 161.168C 252.668 161.168 252.6671 161.168 252.666 161.168C 252.609 161.171 252.554 161.174 252.498 161.174C 251.094 161.235 249.685 161.331 248.273 161.475C 248.257 161.476 248.24 161.477 248.224 161.479C 246.982 161.605 245.7401 161.763 244.495 161.955C 244.38 161.973 244.265 161.985 244.149 162.004C 243.0121 162.185 241.8761 162.397 240.739 162.632C 240.534 162.674 240.33 162.706 240.126 162.75C 238.818 163.032 237.513 163.346 236.207 163.702C 235.136 163.995 234.081 164.319 233.035 164.656C 232.707 164.762 232.381 164.871 232.056 164.98C 231.288 165.24 230.529 165.511 229.775 165.794C 229.266 165.984 228.761 166.181 228.258 166.382C 227.61 166.643 226.964 166.906 226.326 167.184C 225.749 167.434 225.178 167.695 224.609 167.958C 224.337 168.085 224.067 168.215 223.796 168.345C 221.701 169.348 219.671 170.441 217.705 171.621C 217.667 171.641 217.634 171.666 217.598 171.686C 216.558 172.313 215.537 172.964 214.535 173.638C 214.519 173.649 214.504 173.659 214.488 173.669C 207.515 178.372 201.48 184.189 196.562 190.807C 196.544 190.83 196.527 190.854 196.509 190.876C 192.173 196.725 188.712 203.187 186.252 210.05C 186.189 210.208 186.125 210.364 186.076 210.529C 186.076 210.53 186.075 210.531 186.075 210.532C 185.832 211.226 185.605 211.927 185.383 212.629C 185.296 212.901 185.209 213.174 185.126 213.449C 184.919 214.128 184.72 214.808 184.532 215.494C 184.458 215.764 184.39 216.035 184.319 216.306C 183.751 218.483 183.28 220.688 182.912 222.92C 182.845 223.326 182.777 223.733 182.717 224.142C 182.628 224.743 182.546 225.344 182.472 225.949C 182.413 226.423 182.365 226.897 182.316 227.373C 182.258 227.936 182.196 228.499 182.151 229.065C 182.075 230.019 182.017 230.977 181.978 231.938C 181.96 232.401 181.957 232.866 181.948 233.33C 181.934 233.962 181.926 234.595 181.928 235.227C 181.931 235.701 181.939 236.174 181.95 236.648C 181.967 237.323 181.995 237.999 182.03 238.676C 182.051 239.088 182.069 239.498 182.097 239.911C 182.17 240.969 182.263 242.028 182.382 243.089C 182.409 243.325 182.447 243.562 182.477 243.797C 182.584 244.676 182.707 245.554 182.848 246.434C 182.907 246.803 182.973 247.174 183.038 247.543C 183.176 248.331 183.328 249.118 183.494 249.906C 183.565 250.249 183.635 250.592 183.711 250.933C 183.96 252.04 184.227 253.147 184.528 254.252C 189.72 273.247 201.999 289.083 219.102 298.844C 230.393 305.285 242.885 308.57 255.533 308.57zM236.646 291.98C 235.816 291.702 234.992 291.399 234.171 291.084C 233.906 290.981 233.642 290.873 233.377 290.768C 232.799 290.537 232.224 290.295 231.651 290.045C 231.374 289.924 231.096 289.805 230.821 289.679C 230.125 289.363 229.433 289.033 228.747 288.689C 228.632 288.631 228.514 288.579 228.399 288.52L228.399 288.52L233.127 287.228C 234.263 288.835 235.432 290.422 236.648 291.981C 236.646 291.98 236.646 291.98 236.646 291.98zM229.012 249.095L250.918 243.108L257.344 266.614L239.02 271.623C 234.858 264.554 231.514 257.042 229.012 249.095zM264.909 294.315C 263.726 294.502 262.543 294.648 261.358 294.764C 261.244 294.775 261.13 294.785 261.017 294.796C 259.826 294.905 258.635 294.984 257.445 295.023C 253.668 291.335 250.212 287.461 247.056 283.42L247.056 283.42L260.903 279.635L264.916 294.315C 264.914 294.315 264.912 294.315 264.909 294.315zM281.792 289.069C 281.791 289.069 281.791 289.069 281.79 289.069C 280.529 289.673 279.246 290.237 277.938 290.755L277.938 290.755L273.925 276.077L285.193 272.997C 284.441 278.179 283.333 283.534 281.792 289.069zM286.392 258.674L270.368 263.054L263.942 239.548L284.147 234.025C 285.727 241.601 286.58 249.832 286.392 258.674zM298.166 277.479C 298.631 274.652 298.988 271.879 299.264 269.152L299.264 269.152L306.39 267.204C 303.998 270.95 301.25 274.396 298.166 277.479zM315.148 225.551C 315.314 226.606 315.451 227.662 315.56 228.719C 315.567 228.785 315.572 228.851 315.58 228.917C 315.68 229.92 315.756 230.922 315.806 231.924C 315.81 232.005 315.814 232.086 315.817 232.167C 315.864 233.172 315.8849 234.176 315.8799 235.179C 315.8789 235.239 315.8799 235.299 315.8789 235.36C 315.8709 236.413 315.8369 237.464 315.7739 238.512C 315.7739 238.513 315.7739 238.514 315.7739 238.515C 315.5119 242.817 314.7849 247.078 313.5999 251.238L313.5999 251.238L299.9229 254.976C 299.8379 246.158 298.8339 237.964 297.2249 230.451L297.2249 230.451L315.1479 225.551zM296.851 190.929C 298.422 192.399 299.916 193.955 301.329 195.595C 301.341 195.609 301.352 195.622 301.364 195.636C 303.478 198.096 305.405 200.74 307.116 203.555C 307.118 203.558 307.121 203.562 307.123 203.566C 308.838 206.388 310.335 209.381 311.587 212.528C 311.587 212.529 311.587 212.529 311.587 212.529L311.587 212.529L293.677 217.425C 291.194 209.961 288.214 203.377 285.187 197.759C 284.605 196.68 284.015 195.633 283.421 194.602L283.421 194.602L296.851 190.929zM270.949 176.593C 271.921 176.85 272.884 177.132 273.839 177.437C 273.868 177.447 273.899 177.456 273.928 177.465C 276.828 178.395 279.65 179.54 282.368 180.889C 282.369 180.89 282.371 180.89 282.372 180.891L282.372 180.891L275.699 182.715C 274.079 180.494 272.484 178.454 270.949 176.593C 270.949 176.593 270.949 176.593 270.949 176.593zM280.567 221.008L260.381 226.525L253.862 202.679L269.835 198.313C 273.781 204.732 277.592 212.319 280.567 221.008zM246.394 175.336C 247.827 175.112 249.258 174.937 250.686 174.817C 250.707 174.815 250.726 174.812 250.747 174.811C 252.995 176.865 257.03 180.828 261.601 186.568L261.601 186.568L250.305 189.656L246.39 175.337C 246.391 175.337 246.393 175.336 246.394 175.336zM226.606 182.071C 226.607 182.07 226.609 182.069 226.611 182.069C 227.646 181.499 228.704 180.96 229.779 180.448C 229.867 180.407 229.953 180.365 230.04 180.324C 231.125 179.814 232.229 179.33 233.355 178.882C 233.357 178.882 233.359 178.88 233.362 178.879L233.362 178.879L237.281 193.216L224.179 196.797C 224.893 190.075 225.938 184.928 226.606 182.071zM240.841 206.238L247.359 230.084L225.712 236.001C 224.738 230.917 224.054 225.688 223.695 220.3C 223.481 217.078 223.397 213.973 223.407 211.005L223.407 211.005L240.841 206.238zM210.816 194.659C 210.609 196.53 210.425 198.511 210.279 200.597L210.279 200.597L205.214 201.982C 206.889 199.405 208.763 196.96 210.816 194.659zM196.153 244.078C 195.985 243.001 195.849 241.924 195.74 240.849C 195.728 240.733 195.72 240.618 195.709 240.502C 195.617 239.539 195.549 238.577 195.504 237.617C 195.496 237.449 195.49 237.281 195.484 237.113C 195.449 236.201 195.435 235.293 195.441 234.385C 195.442 234.196 195.444 234.006 195.447 233.818C 195.463 232.922 195.499 232.029 195.554 231.139C 195.565 230.956 195.574 230.773 195.586 230.589C 195.651 229.666 195.74 228.747 195.849 227.831C 195.865 227.694 195.876 227.557 195.894 227.421C 196.294 224.213 196.949 221.06 197.848 217.988L197.848 217.988L209.939 214.683C 209.983 216.631 210.062 218.623 210.19 220.663C 210.596 227.12 211.433 233.426 212.676 239.561L212.676 239.561L196.154 244.078C 196.154 244.08 196.154 244.079 196.153 244.078zM204.069 265.917C 204.039 265.868 204.009 265.818 203.981 265.769C 203.465 264.907 202.972 264.03 202.5 263.14C 202.463 263.069 202.425 262.997 202.387 262.926C 201.92 262.037 201.475 261.134 201.051 260.22C 201.024 260.16 200.996 260.102 200.969 260.042C 200.526 259.076 200.105 258.098 199.711 257.104L199.711 257.104L216.055 252.636C 218.532 260.543 221.769 268.094 225.692 275.264L225.692 275.264L214.111 278.43C 210.209 274.725 206.837 270.521 204.069 265.917z" stroke="none" fill="#F4E18D" fill-rule="nonzero" />
        <path transform="matrix(1 0 0 1 0 0)" d="M330.716 327.646L236.131 352.592C 222.826 356.102 214.856 369.782 218.364 383.088C 220.064 389.532 224.173 394.931 229.931 398.286C 233.797 400.539 238.095 401.689 242.452 401.689C 244.587 401.689 246.738 401.412 248.858 400.854L248.858 400.854L343.441 375.908C 349.888 374.208 355.286 370.099 358.641 364.34C 361.996 358.581 362.91 351.859 361.209 345.413C 357.701 332.108 344.021 324.143 330.716 327.646z" stroke="none" fill="#F4E18D" fill-rule="nonzero" />
        <path transform="matrix(1 0 0 1 0 0)" d="M117.933 290.491L95.07899 201.647C 94.14899 198.036 90.461 195.862 86.85799 196.792C 83.24899 197.722 81.075 201.4 82.00299 205.012L82.00299 205.012L104.858 293.857C 105.642 296.902 108.384 298.925 111.39 298.925C 111.948 298.925 112.514 298.857 113.078 298.712C 116.688 297.782 118.861 294.103 117.933 290.491z" stroke="none" fill="#000000" fill-rule="nonzero" />
        <path transform="matrix(1 0 0 1 0 0)" d="M123.839 340.548C 127.449 339.619 129.623 335.94 128.695 332.328L128.695 332.328L124.995 317.948C 124.064 314.337 120.383 312.165 116.775 313.093C 113.166 314.022 110.991 317.701 111.92 321.313L111.92 321.313L115.619 335.693C 116.403 338.739 119.145 340.762 122.151 340.762C 122.709 340.762 123.274 340.693 123.839 340.548z" stroke="none" fill="#000000" fill-rule="nonzero" />
        <path transform="matrix(1 0 0 1 0 0)" d="M135.421 358.478C 134.491 354.868 130.805 352.697 127.201 353.623C 123.591 354.553 121.418 358.232 122.346 361.844L122.346 361.844L136.136 415.448C 136.92 418.493 139.662 420.517 142.668 420.517C 143.226 420.517 143.791 420.448 144.356 420.303C 147.965 419.373 150.139 415.694 149.211 412.083L149.211 412.083L135.421 358.478z" stroke="none" fill="#000000" fill-rule="nonzero" />
        <path transform="matrix(1 0 0 1 0 0)" d="M412.422 258.297L416.206 272.657C 417.006 275.684 419.738 277.687 422.729 277.687C 423.297 277.687 423.877 277.615 424.454 277.463C 428.058 276.512 430.211 272.819 429.261 269.215L429.261 269.215L425.476 254.856C 424.526 251.252 420.835 249.1 417.229 250.049C 413.624 251 411.471 254.692 412.422 258.297z" stroke="none" fill="#000000" fill-rule="nonzero" />
        <path transform="matrix(1 0 0 1 0 0)" d="M405.537 232.189C 406.336 235.217 409.068 237.22 412.06 237.22C 412.629 237.22 413.207 237.148 413.785 236.995C 417.389 236.045 419.542 232.352 418.591 228.748L418.591 228.748L404.482 175.227C 403.53 171.623 399.836 169.475 396.234 170.42C 392.628 171.37 390.476 175.064 391.426 178.667L391.426 178.667L405.537 232.189z" stroke="none" fill="#000000" fill-rule="nonzero" />
    </g>
</svg>